<?xml version="1.0" encoding="UTF-8" standalone="no"?>
<!-- Created with Inkscape (http://www.inkscape.org/) -->

<svg
   xmlns:dc="http://purl.org/dc/elements/1.1/"
   xmlns:cc="http://creativecommons.org/ns#"
   xmlns:rdf="http://www.w3.org/1999/02/22-rdf-syntax-ns#"
   xmlns:svg="http://www.w3.org/2000/svg"
   xmlns="http://www.w3.org/2000/svg"
   xmlns:sodipodi="http://sodipodi.sourceforge.net/DTD/sodipodi-0.dtd"
   xmlns:inkscape="http://www.inkscape.org/namespaces/inkscape"
   width="64px"
   height="64px"
   viewBox="0 0 64 64"
   version="1.1"
   id="SVGRoot"
   sodipodi:docname="md.svg"
   inkscape:version="0.92.4 (f8dce91, 2019-08-02)">
  <defs
     id="defs815" />
  <sodipodi:namedview
     id="base"
     pagecolor="#ffffff"
     bordercolor="#666666"
     borderopacity="1.0"
     inkscape:pageopacity="0.0"
     inkscape:pageshadow="2"
     inkscape:zoom="1"
     inkscape:cx="25.233784"
     inkscape:cy="15.121561"
     inkscape:document-units="px"
     inkscape:current-layer="layer1"
     showgrid="false"
     inkscape:window-width="1533"
     inkscape:window-height="845"
     inkscape:window-x="67"
     inkscape:window-y="27"
     inkscape:window-maximized="1"
     inkscape:grid-bbox="true"
     inkscape:snap-global="false" />
  <metadata
     id="metadata818">
    <rdf:RDF>
      <cc:Work
         rdf:about="">
        <dc:format>image/svg+xml</dc:format>
        <dc:type
           rdf:resource="http://purl.org/dc/dcmitype/StillImage" />
      </cc:Work>
    </rdf:RDF>
  </metadata>
  <g
     inkscape:label="Layer 1"
     inkscape:groupmode="layer"
     id="layer1">
    <g
       aria-label="m"
       style="font-style:italic;font-variant:normal;font-weight:bold;font-stretch:normal;font-size:48px;line-height:1.25;font-family:'Segoe UI';-inkscape-font-specification:'Segoe UI Bold Italic';letter-spacing:0px;word-spacing:0px;fill:#555555;fill-opacity:1;stroke:none"
       id="text1373"
       transform="translate(1,6)">
      <path
         d="m 52.843749,21.369792 c 0,0.868055 -0.269097,2.578125 -0.807292,5.130208 l -2.410232,10.981155 5.325826,-0.440102 -9.708947,10.695306 -6.440101,-11.557742 4.765165,0.80254 2.270373,-10.897821 c 0.347222,-1.857639 0.520833,-2.994792 0.520833,-3.411459 0,-2.343749 -1.032986,-3.515624 -3.098958,-3.515624 -1.597222,0 -3.28993,0.980903 -5.078125,2.942708 -1.788195,1.944444 -2.916667,4.036458 -3.385417,6.276041 L 32.036458,41.5 h -6.302083 l 3.281249,-15.416666 c 0.347223,-1.857639 0.520834,-2.994792 0.520834,-3.411459 0,-2.343749 -1.032986,-3.515624 -3.098958,-3.515624 -1.059028,0 -2.196181,0.460069 -3.411459,1.380208 -1.215277,0.920139 -2.291666,2.118055 -3.229166,3.59375 -0.9375,1.458333 -1.545139,2.881944 -1.822917,4.270833 L 15.161458,41.5 H 8.8333333 L 12.869792,22.854167 c 0.625,-2.986111 1.085069,-5.659722 1.380208,-8.020833 h 6.145833 c -0.138889,1.475695 -0.407986,3.385417 -0.807292,5.729166 h 0.104167 c 1.371528,-2.013889 2.907986,-3.576388 4.609375,-4.687499 1.701389,-1.128473 3.394097,-1.692709 5.078125,-1.692709 4.079861,0 6.267361,2.170139 6.5625,6.510417 1.458333,-2.118055 3.064236,-3.732639 4.817708,-4.84375 1.770833,-1.111111 3.576389,-1.666667 5.416666,-1.666667 2.222223,0 3.888889,0.625 5,1.875 1.111111,1.232639 1.666667,3.003473 1.666667,5.3125 z"
         style="font-style:italic;font-variant:normal;font-weight:600;font-stretch:normal;font-size:53.33333206px;font-family:'Segoe UI';-inkscape-font-specification:'Segoe UI Semi-Bold Italic';fill:#555555;fill-opacity:1"
         id="path1375"
         inkscape:connector-curvature="0"
         sodipodi:nodetypes="scccccccsscccccsssccccccccccsccscs" />
    </g>
  </g>
</svg>
